<svg xmlns="http://www.w3.org/2000/svg" viewBox="0 0 512 512" fill="none">
  <!-- Background circle -->
  <circle cx="256" cy="256" r="256" fill="#0D0D0D"/>
  
  <!-- Red glow -->
  <circle cx="256" cy="256" r="180" fill="#FF3B30" opacity="0.08"/>
  
  <!-- Shield body -->
  <path d="M256 72c-8 0-15 3-15 3S152 112 120 128c-12 6-20 18-20 32v80c0 88 64 148 148 188 4 2 8 2 12 2s8 0 12-2c84-40 148-100 148-188v-80c0-14-8-26-20-32-32-16-121-53-121-53s-7-3-15-3h-8z" fill="#FF3B30"/>
  
  <!-- Shield inner -->
  <path d="M256 96c-4 0-8 1-8 1S168 130 140 144c-6 3-10 9-10 16v72c0 76 56 128 120 164 64-36 120-88 120-164v-72c0-7-4-13-10-16-28-14-100-47-100-47s-4-1-8-1h-4z" fill="#1A1A1A"/>
  
  <!-- Exclamation mark -->
  <rect x="240" y="172" width="32" height="120" rx="16" fill="#FF3B30"/>
  <circle cx="256" cy="332" r="20" fill="#FF3B30"/>
  
  <!-- Subtle ring -->
  <circle cx="256" cy="256" r="220" stroke="#FF3B30" stroke-width="2" opacity="0.15"/>
</svg>
