<svg xmlns="http://www.w3.org/2000/svg" viewBox="0 0 32 32" fill="none">
  <circle cx="16" cy="16" r="16" fill="#0D0D0D"/>
  <path d="M16 4c-1 0-2 .5-2 .5S9 7 7 8c-1 .5-2 1.5-2 3v5c0 6 4 10 10 13 6-3 10-7 10-13v-5c0-1.5-1-2.5-2-3-2-1-7-3.5-7-3.5S17 4 16 4z" fill="#FF3B30"/>
  <path d="M16 6.5c-.5 0-1 .2-1 .2S11 8.5 9 9.5c-.5.2-1 .7-1 1.2v4.5c0 5 3.5 8.5 8 11 4.5-2.5 8-6 8-11v-4.5c0-.5-.5-1-1-1.2-1.5-.8-6-3-6-3S16.5 6.5 16 6.5z" fill="#1A1A1A"/>
  <rect x="14.5" y="11" width="3" height="8" rx="1.5" fill="#FF3B30"/>
  <circle cx="16" cy="22" r="1.8" fill="#FF3B30"/>
</svg>
